HIERARCHY
ROOT SpineBase
{
  OFFSET 0.000000 0.000000 0.000000
  CHANNELS 6 Xposition Yposition Zposition Zrotation Xrotation Yrotation
  JOINT SpineMid
  {
    OFFSET -0.000000 27.261393 0.000000
    CHANNELS 3 Zrotation Xrotation Yrotation
    JOINT SpineShoulder
    {
      OFFSET 0.107400 20.263503 -0.584507
      CHANNELS 3 Zrotation Xrotation Yrotation
      JOINT Neck
      {
        OFFSET -0.002214 6.728153 -0.485570
        CHANNELS 3 Zrotation Xrotation Yrotation
        JOINT Head
        {
          OFFSET 2.574345 12.149299 0.604344
          CHANNELS 3 Zrotation Xrotation Yrotation
          End Site
          {
            OFFSET 0 0 0
          }
        }
      }
      JOINT ShoulderLeft
      {
        OFFSET -10.678322 -2.825812 -7.430882
        CHANNELS 3 Zrotation Xrotation Yrotation
        JOINT ElbowLeft
        {
          OFFSET -4.344519 -21.679989 -3.274899
          CHANNELS 3 Zrotation Xrotation Yrotation
          JOINT WristLeft
          {
            OFFSET 2.232025 -19.644248 -4.830193
            CHANNELS 3 Zrotation Xrotation Yrotation
            JOINT HandLeft
            {
              OFFSET 1.313437 -6.863494 -0.370707
              CHANNELS 3 Zrotation Xrotation Yrotation
              JOINT HandTipLeft
              {
                OFFSET 0.994087 -6.795599 -0.615549
                CHANNELS 3 Zrotation Xrotation Yrotation
                End Site
                {
                  OFFSET 0 0 0
                }
              }
              JOINT ThumbLeft
              {
                OFFSET 2.823939 1.226153 0.440977
                CHANNELS 3 Zrotation Xrotation Yrotation
                End Site
                {
                  OFFSET 0 0 0
                }
              }
            }
          }
        }
      }
      JOINT ShoulderRight
      {
        OFFSET 12.788747 -3.290905 4.544627
        CHANNELS 3 Zrotation Xrotation Yrotation
        JOINT ElbowRight
        {
          OFFSET 1.149166 -24.755017 -3.571846
          CHANNELS 3 Zrotation Xrotation Yrotation
          JOINT WristRight
          {
            OFFSET 1.496111 -18.263919 -5.260146
            CHANNELS 3 Zrotation Xrotation Yrotation
            JOINT HandRight
            {
              OFFSET -1.580600 -6.385081 -0.860840
              CHANNELS 3 Zrotation Xrotation Yrotation
              JOINT HandTipRight
              {
                OFFSET -0.254525 -6.303014 -1.292466
                CHANNELS 3 Zrotation Xrotation Yrotation
                End Site
                {
                  OFFSET 0 0 0
                }
              }
              JOINT ThumbRight
              {
                OFFSET -1.724934 -0.946395 -0.236605
                CHANNELS 3 Zrotation Xrotation Yrotation
                End Site
                {
                  OFFSET 0 0 0
                }
              }
            }
          }
        }
      }
    }
  }
  JOINT HipLeft
  {
    OFFSET -5.418696 1.156704 -5.588393
    CHANNELS 3 Zrotation Xrotation Yrotation
    JOINT KneeLeft
    {
      OFFSET -6.630093 -29.276344 0.503328
      CHANNELS 3 Zrotation Xrotation Yrotation
      JOINT AnkleLeft
      {
        OFFSET -2.406962 -33.749114 9.255447
        CHANNELS 3 Zrotation Xrotation Yrotation
        JOINT FootLeft
        {
          OFFSET 3.870030 -6.368004 -0.678946
          CHANNELS 3 Zrotation Xrotation Yrotation
          End Site
          {
            OFFSET 0 0 0
          }
        }
      }
    }
  }
  JOINT HipRight
  {
    OFFSET 5.227991 0.316964 -0.441182
    CHANNELS 3 Zrotation Xrotation Yrotation
    JOINT KneeRight
    {
      OFFSET -3.420850 -29.397007 2.516861
      CHANNELS 3 Zrotation Xrotation Yrotation
      JOINT AnkleRight
      {
        OFFSET -6.652641 -32.932748 6.480347
        CHANNELS 3 Zrotation Xrotation Yrotation
        JOINT FootRight
        {
          OFFSET 3.836882 -3.362463 -9.987579
          CHANNELS 3 Zrotation Xrotation Yrotation
          End Site
          {
            OFFSET 0 0 0
          }
        }
      }
    }
  }
}
MOTION
Frames: 5
Frame Time: 0.033333
15.560576 69.204526 362.377536 0.000000 0.000000 -25.801749 -0.000000 0.000000 25.801749 -0.000000 0.000000 0.000000 -0.000000 0.000000 0.000000 0.000000 0.000000 0.000000 -0.000000 0.000000 0.000000 -0.000000 0.000000 0.000000 -0.000000 0.000000 0.000000 -0.000000 0.000000 0.000000 0.000000 0.000000 0.000000 0.000000 0.000000 0.000000 -0.000000 0.000000 0.000000 -0.000000 0.000000 0.000000 -0.000000 0.000000 0.000000 -0.000000 0.000000 0.000000 0.000000 0.000000 0.000000 0.000000 0.000000 0.000000 -0.000000 0.000000 25.801749 -0.000000 0.000000 0.000000 -0.000000 0.000000 0.000000 0.000000 0.000000 0.000000 -0.000000 0.000000 25.801749 -0.000000 0.000000 0.000000 -0.000000 0.000000 0.000000 0.000000 0.000000 0.000000
15.872550 69.190279 362.448416 0.295360 -0.158147 -25.474402 -0.334665 0.015733 25.474855 -0.000000 0.000000 0.000000 -0.000000 0.000000 0.000000 0.000000 0.000000 0.000000 -0.000000 0.000000 0.000000 -0.527213 0.639130 0.205020 -1.203245 -1.679539 -0.341379 -0.632080 1.569474 0.436129 0.000000 0.000000 0.000000 0.000000 0.000000 0.000000 0.633672 -1.583487 -0.156459 -0.336980 -0.563113 -0.090709 1.879692 -2.275513 1.083508 0.595895 -0.537114 -1.195170 0.000000 0.000000 0.000000 0.000000 0.000000 0.000000 -0.334665 0.015733 25.474855 -0.000000 0.000000 0.000000 0.042611 7.116951 4.292115 0.000000 0.000000 0.000000 -0.334665 0.015733 25.474855 -0.000000 0.000000 0.000000 -0.291161 -1.520966 -0.913328 0.000000 0.000000 0.000000
16.130380 69.178898 362.506619 0.525271 -0.288887 -25.193360 -0.598276 0.037804 25.194881 -0.000000 0.000000 0.000000 -0.000000 0.000000 0.000000 0.000000 0.000000 0.000000 -0.048872 -1.051876 0.218012 -0.955915 2.205193 0.188804 -2.125387 -3.062120 -0.686330 -1.274117 2.830766 0.864292 0.000000 0.000000 0.000000 0.000000 0.000000 0.000000 1.207837 -3.193178 -0.289909 -0.653969 -0.790821 -0.142927 3.706650 -4.254719 2.028091 0.496131 -0.652384 -2.142932 0.000000 0.000000 0.000000 0.000000 0.000000 0.000000 -0.598276 0.037804 25.194881 -1.276482 0.347003 -0.370975 0.770157 12.094244 7.981577 0.000000 0.000000 0.000000 -1.581285 -0.434871 25.099272 1.090683 0.011019 0.092099 -0.523096 -2.666403 -1.622042 0.000000 0.000000 0.000000
16.334065 69.170383 362.552145 0.689500 -0.392112 -24.958731 -0.790564 0.064527 24.961535 -0.000000 0.000000 0.000000 -0.000000 0.000000 0.000000 0.000000 0.000000 0.000000 -0.227256 -1.434012 0.319341 -1.198867 2.952687 0.255030 -2.757690 -4.123676 -0.996338 -1.898227 3.769777 1.245526 0.000000 0.000000 0.000000 0.000000 0.000000 0.000000 1.723450 -4.829986 -0.402515 -0.944488 -0.730409 -0.165407 5.379674 -5.767947 2.798388 -0.224344 -0.364363 -2.768970 0.000000 0.000000 0.000000 0.000000 0.000000 0.000000 -0.790564 0.064527 24.961535 -1.728890 0.498327 -0.502248 0.480220 15.441614 10.432549 0.000000 0.000000 0.000000 -2.102010 -0.581220 24.834403 1.461368 0.035126 0.120770 -0.659280 -3.334695 -2.058462 0.000000 0.000000 0.000000
16.483606 69.164734 362.584993 0.787861 -0.467738 -24.770634 -0.911344 0.094565 24.774602 -0.000000 0.000000 0.000000 -0.000000 0.000000 0.000000 0.000000 0.000000 0.000000 -0.507517 -1.734055 0.417084 -1.269157 3.454844 0.284243 -3.095600 -4.848933 -1.240329 -2.481041 4.381241 1.546693 0.000000 0.000000 0.000000 0.000000 0.000000 0.000000 2.181249 -6.494929 -0.496437 -1.203712 -0.419452 -0.165308 6.815043 -6.692442 3.354166 -1.494685 0.274412 -3.019962 0.000000 0.000000 0.000000 0.000000 0.000000 0.000000 -0.911344 0.094565 24.774602 -2.056841 0.633363 -0.598071 0.064236 17.101964 11.852229 0.000000 0.000000 0.000000 -2.442957 -0.686188 24.627677 1.717623 0.071311 0.137948 -0.675051 -3.463176 -2.178285 0.000000 0.000000 0.000000
